# xmcd CD database file
#
# Track frame offsets:
#	150
#	16690
#	31470
#	51055
#	70652
#	87222
#	102022
#	119167
#	133215
#	150622
#	165437
#
# Disc length: 2488 seconds
#
# Revision: 0
# Processed by: cddbd v1.4PL0 Copyright (c) Steve Scherf et al.
# Submitted via: CDex 1.50Beta7
#
DISCID=8509b60b
DTITLE=Wolftown - Mother Lode
DYEAR=1996
DGENRE=Country
TTITLE0=Don't Let Love Walk Out Of Your Life
TTITLE1=If You're Gonna Be Dumb
TTITLE2=Apple At The Top Of The Tree
TTITLE3=Hold On
TTITLE4=Heaven In The Pines
TTITLE5=It's Your Love
TTITLE6=Love Won't Save For A Rainy Day
TTITLE7=She Don't Cook
TTITLE8=Country In My Soul
TTITLE9=Devil Moved In
TTITLE10=Mother Lode
EXTD=YEAR: 1996
EXTT0=
EXTT1=
EXTT2=
EXTT3=
EXTT4=
EXTT5=
EXTT6=
EXTT7=
EXTT8=
EXTT9=
EXTT10=
PLAYORDER=
